{
  "accessors": [
    {
      "bufferView": 2,
      "componentType": 5126,
      "count": 65532,
      "max": [
        13.352025032043457,
        9.929150581359863,
        19.73137664794922
      ],
      "min": [
        -15.650894165039063,
        -10.076323509216309,
        0.4735569953918457
      ],
      "type": "VEC3"
    },
    {
      "bufferView": 2,
      "byteOffset": 786384,
      "componentType": 5126,
      "count": 65532,
      "max": [
        0.9999919533729553,
        0.9999995231628418,
        1.0
      ],
      "min": [
        -0.9999720454216003,
        -0.9999996423721313,
        -1.0
      ],
      "type": "VEC3"
    },
    {
      "bufferView": 1,
      "componentType": 5126,
      "count": 65532,
      "max": [
        0.9998049736022949,
        0.9998779892921448
      ],
      "min": [
        0.00012199999764561653,
        0.0002749999985098839
      ],
      "type": "VEC2"
    },
    {
      "bufferView": 0,
      "componentType": 5125,
      "count": 261804,
      "type": "SCALAR"
    },
    {
      "bufferView": 2,
      "byteOffset": 1572768,
      "componentType": 5126,
      "count": 65534,
      "max": [
        13.041061401367188,
        9.929150581359863,
        18.628442764282227
      ],
      "min": [
        -14.241768836975098,
        -9.439726829528809,
        0.4791693687438965
      ],
      "type": "VEC3"
    },
    {
      "bufferView": 2,
      "byteOffset": 2359176,
      "componentType": 5126,
      "count": 65534,
      "max": [
        0.9999997615814209,
        0.9999995827674866,
        1.0
      ],
      "min": [
        -0.9999997615814209,
        -0.9999998211860657,
        -0.9999709725379944
      ],
      "type": "VEC3"
    },
    {
      "bufferView": 1,
      "byteOffset": 524256,
      "componentType": 5126,
      "count": 65534,
      "max": [
        0.9997329711914063,
        0.9998779892921448
      ],
      "min": [
        0.00012199999764561653,
        0.00021800000104121864
      ],
      "type": "VEC2"
    },
    {
      "bufferView": 0,
      "byteOffset": 1047216,
      "componentType": 5125,
      "count": 264324,
      "type": "SCALAR"
    },
    {
      "bufferView": 2,
      "byteOffset": 3145584,
      "componentType": 5126,
      "count": 65532,
      "max": [
        12.550512313842773,
        9.118084907531738,
        16.60657501220703
      ],
      "min": [
        -12.548229217529297,
        -9.348886489868164,
        0.4791693687438965
      ],
      "type": "VEC3"
    },
    {
      "bufferView": 2,
      "byteOffset": 3931968,
      "componentType": 5126,
      "count": 65532,
      "max": [
        0.9999982714653015,
        0.9999995827674866,
        1.0
      ],
      "min": [
        -0.9999997615814209,
        -0.9999998211860657,
        -0.9999986886978149
      ],
      "type": "VEC3"
    },
    {
      "bufferView": 1,
      "byteOffset": 1048528,
      "componentType": 5126,
      "count": 65532,
      "max": [
        0.9996200203895569,
        0.9998779892921448
      ],
      "min": [
        0.00012199999764561653,
        0.0003169999981764704
      ],
      "type": "VEC2"
    },
    {
      "bufferView": 0,
      "byteOffset": 2104512,
      "componentType": 5125,
      "count": 260394,
      "type": "SCALAR"
    },
    {
      "bufferView": 2,
      "byteOffset": 4718352,
      "componentType": 5126,
      "count": 65533,
      "max": [
        12.608613014221191,
        9.43109130859375,
        16.35447883605957
      ],
      "min": [
        -14.287932395935059,
        -9.353610038757324,
        0.4791693687438965
      ],
      "type": "VEC3"
    },
    {
      "bufferView": 2,
      "byteOffset": 5504748,
      "componentType": 5126,
      "count": 65533,
      "max": [
        0.9999971389770508,
        1.0,
        1.0
      ],
      "min": [
        -0.9999991655349731,
        -0.9999993443489075,
        -0.9999867677688599
      ],
      "type": "VEC3"
    },
    {
      "bufferView": 1,
      "byteOffset": 1572784,
      "componentType": 5126,
      "count": 65533,
      "max": [
        0.999813973903656,
        0.9998779892921448
      ],
      "min": [
        0.00012199999764561653,
        0.0002099999983329326
      ],
      "type": "VEC2"
    },
    {
      "bufferView": 0,
      "byteOffset": 3146088,
      "componentType": 5125,
      "count": 252114,
      "type": "SCALAR"
    },
    {
      "bufferView": 2,
      "byteOffset": 6291144,
      "componentType": 5126,
      "count": 65532,
      "max": [
        12.55008316040039,
        9.121487617492676,
        18.72660255432129
      ],
      "min": [
        -13.216054916381836,
        -9.80742359161377,
        0.4791693687438965
      ],
      "type": "VEC3"
    },
    {
      "bufferView": 2,
      "byteOffset": 7077528,
      "componentType": 5126,
      "count": 65532,
      "max": [
        0.9999982118606567,
        1.0,
        1.0
      ],
      "min": [
        -0.9999998807907104,
        -0.9999985098838806,
        -1.0
      ],
      "type": "VEC3"
    },
    {
      "bufferView": 1,
      "byteOffset": 2097048,
      "componentType": 5126,
      "count": 65532,
      "max": [
        0.9997699856758118,
        0.9998779892921448
      ],
      "min": [
        0.00012199999764561653,
        0.0003499999875202775
      ],
      "type": "VEC2"
    },
    {
      "bufferView": 0,
      "byteOffset": 4154544,
      "componentType": 5125,
      "count": 233019,
      "type": "SCALAR"
    },
    {
      "bufferView": 2,
      "byteOffset": 7863912,
      "componentType": 5126,
      "count": 65532,
      "max": [
        12.552018165588379,
        9.635011672973633,
        18.751893997192383
      ],
      "min": [
        -12.633392333984375,
        -9.419051170349121,
        0.4791693687438965
      ],
      "type": "VEC3"
    },
    {
      "bufferView": 2,
      "byteOffset": 8650296,
      "componentType": 5126,
      "count": 65532,
      "max": [
        0.9999995231628418,
        0.9999998211860657,
        1.0
      ],
      "min": [
        -0.9999979138374329,
        -0.9999999403953552,
        -1.0
      ],
      "type": "VEC3"
    },
    {
      "bufferView": 1,
      "byteOffset": 2621304,
      "componentType": 5126,
      "count": 65532,
      "max": [
        0.9996569752693176,
        0.9998779892921448
      ],
      "min": [
        0.00012199999764561653,
        0.00022699999681208283
      ],
      "type": "VEC2"
    },
    {
      "bufferView": 0,
      "byteOffset": 5086620,
      "componentType": 5125,
      "count": 227259,
      "type": "SCALAR"
    },
    {
      "bufferView": 2,
      "byteOffset": 9436680,
      "componentType": 5126,
      "count": 65533,
      "max": [
        13.23678207397461,
        9.135199546813965,
        18.75384521484375
      ],
      "min": [
        -15.561393737792969,
        -9.32380485534668,
        1.025876522064209
      ],
      "type": "VEC3"
    },
    {
      "bufferView": 2,
      "byteOffset": 10223076,
      "componentType": 5126,
      "count": 65533,
      "max": [
        0.9999994039535522,
        0.9999973773956299,
        0.9999995827674866
      ],
      "min": [
        -0.9999999403953552,
        -0.9999997615814209,
        -0.9999996423721313
      ],
      "type": "VEC3"
    },
    {
      "bufferView": 1,
      "byteOffset": 3145560,
      "componentType": 5126,
      "count": 65533,
      "max": [
        0.9993749856948853,
        0.9998779892921448
      ],
      "min": [
        0.00012199999764561653,
        0.00020199999562464654
      ],
      "type": "VEC2"
    },
    {
      "bufferView": 0,
      "byteOffset": 5995656,
      "componentType": 5125,
      "count": 224496,
      "type": "SCALAR"
    },
    {
      "bufferView": 2,
      "byteOffset": 11009472,
      "componentType": 5126,
      "count": 65532,
      "max": [
        12.596606254577637,
        9.270212173461914,
        19.731351852416992
      ],
      "min": [
        -14.88466739654541,
        -9.54137134552002,
        0.8610148429870605
      ],
      "type": "VEC3"
    },
    {
      "bufferView": 2,
      "byteOffset": 11795856,
      "componentType": 5126,
      "count": 65532,
      "max": [
        0.9999997019767761,
        0.999999463558197,
        1.0
      ],
      "min": [
        -0.9999980926513672,
        -0.9999998211860657,
        -0.9999996423721313
      ],
      "type": "VEC3"
    },
    {
      "bufferView": 1,
      "byteOffset": 3669824,
      "componentType": 5126,
      "count": 65532,
      "max": [
        0.9995920062065125,
        0.9998779892921448
      ],
      "min": [
        0.00012199999764561653,
        0.0003499999875202775
      ],
      "type": "VEC2"
    },
    {
      "bufferView": 0,
      "byteOffset": 6893640,
      "componentType": 5125,
      "count": 226842,
      "type": "SCALAR"
    },
    {
      "bufferView": 2,
      "byteOffset": 12582240,
      "componentType": 5126,
      "count": 65532,
      "max": [
        12.095826148986816,
        9.652148246765137,
        19.119972229003906
      ],
      "min": [
        -15.650894165039063,
        -9.54137134552002,
        0.4791693687438965
      ],
      "type": "VEC3"
    },
    {
      "bufferView": 2,
      "byteOffset": 13368624,
      "componentType": 5126,
      "count": 65532,
      "max": [
        0.9999987483024597,
        0.9999989867210388,
        0.9999998211860657
      ],
      "min": [
        -0.999997615814209,
        -0.9999988675117493,
        -1.0
      ],
      "type": "VEC3"
    },
    {
      "bufferView": 1,
      "byteOffset": 4194080,
      "componentType": 5126,
      "count": 65532,
      "max": [
        0.9997550249099731,
        0.9998779892921448
      ],
      "min": [
        0.00012199999764561653,
        0.0002300000051036477
      ],
      "type": "VEC2"
    },
    {
      "bufferView": 0,
      "byteOffset": 7801008,
      "componentType": 5125,
      "count": 198837,
      "type": "SCALAR"
    },
    {
      "bufferView": 2,
      "byteOffset": 14155008,
      "componentType": 5126,
      "count": 65532,
      "max": [
        9.149065971374512,
        9.634968757629395,
        19.243206024169922
      ],
      "min": [
        -13.33156967163086,
        -9.434664726257324,
        1.0744414329528809
      ],
      "type": "VEC3"
    },
    {
      "bufferView": 2,
      "byteOffset": 14941392,
      "componentType": 5126,
      "count": 65532,
      "max": [
        0.9999994039535522,
        0.9999998211860657,
        0.9999982714653015
      ],
      "min": [
        -0.9999620914459229,
        -0.9999992847442627,
        -0.9999995827674866
      ],
      "type": "VEC3"
    },
    {
      "bufferView": 1,
      "byteOffset": 4718336,
      "componentType": 5126,
      "count": 65532,
      "max": [
        0.9997889995574951,
        0.9998779892921448
      ],
      "min": [
        0.00012199999764561653,
        0.00022200000239536166
      ],
      "type": "VEC2"
    },
    {
      "bufferView": 0,
      "byteOffset": 8596356,
      "componentType": 5125,
      "count": 224760,
      "type": "SCALAR"
    },
    {
      "bufferView": 2,
      "byteOffset": 15727776,
      "componentType": 5126,
      "count": 65532,
      "max": [
        11.539319038391113,
        8.66956901550293,
        19.731351852416992
      ],
      "min": [
        -13.571093559265137,
        -10.035067558288574,
        0.956881046295166
      ],
      "type": "VEC3"
    },
    {
      "bufferView": 2,
      "byteOffset": 16514160,
      "componentType": 5126,
      "count": 65532,
      "max": [
        1.0,
        0.9999796152114868,
        1.0
      ],
      "min": [
        -0.9998742938041687,
        -0.9999998211860657,
        -0.9999996423721313
      ],
      "type": "VEC3"
    },
    {
      "bufferView": 1,
      "byteOffset": 5242592,
      "componentType": 5126,
      "count": 65532,
      "max": [
        0.9997730255126953,
        0.9998779892921448
      ],
      "min": [
        0.00012199999764561653,
        0.0001880000054370612
      ],
      "type": "VEC2"
    },
    {
      "bufferView": 0,
      "byteOffset": 9495396,
      "componentType": 5125,
      "count": 200907,
      "type": "SCALAR"
    },
    {
      "bufferView": 2,
      "byteOffset": 17300544,
      "componentType": 5126,
      "count": 65533,
      "max": [
        12.5758056640625,
        9.387628555297852,
        19.731351852416992
      ],
      "min": [
        -15.649564743041992,
        -9.721659660339355,
        3.4236698150634766
      ],
      "type": "VEC3"
    },
    {
      "bufferView": 2,
      "byteOffset": 18086940,
      "componentType": 5126,
      "count": 65533,
      "max": [
        0.9999992251396179,
        1.0,
        1.0
      ],
      "min": [
        -0.9999996423721313,
        -0.999999463558197,
        -0.9999988079071045
      ],
      "type": "VEC3"
    },
    {
      "bufferView": 1,
      "byteOffset": 5766848,
      "componentType": 5126,
      "count": 65533,
      "max": [
        0.9998049736022949,
        0.9998779892921448
      ],
      "min": [
        0.00012199999764561653,
        0.00023799999326001853
      ],
      "type": "VEC2"
    },
    {
      "bufferView": 0,
      "byteOffset": 10299024,
      "componentType": 5125,
      "count": 172932,
      "type": "SCALAR"
    },
    {
      "bufferView": 2,
      "byteOffset": 18873336,
      "componentType": 5126,
      "count": 65532,
      "max": [
        12.604886054992676,
        9.132499694824219,
        19.139480590820313
      ],
      "min": [
        -14.367105484008789,
        -9.666873931884766,
        0.4791693687438965
      ],
      "type": "VEC3"
    },
    {
      "bufferView": 2,
      "byteOffset": 19659720,
      "componentType": 5126,
      "count": 65532,
      "max": [
        1.0,
        0.9999997019767761,
        0.9999974370002747
      ],
      "min": [
        -0.9999998807907104,
        -0.9999991655349731,
        -0.9999995231628418
      ],
      "type": "VEC3"
    },
    {
      "bufferView": 1,
      "byteOffset": 6291112,
      "componentType": 5126,
      "count": 65532,
      "max": [
        0.9998120069503784,
        0.9998779892921448
      ],
      "min": [
        0.00012199999764561653,
        0.0002800000074785203
      ],
      "type": "VEC2"
    },
    {
      "bufferView": 0,
      "byteOffset": 10990752,
      "componentType": 5125,
      "count": 171042,
      "type": "SCALAR"
    },
    {
      "bufferView": 2,
      "byteOffset": 20446104,
      "componentType": 5126,
      "count": 37090,
      "max": [
        12.6057767868042,
        9.096901893615723,
        19.731351852416992
      ],
      "min": [
        -15.339929580688477,
        -10.076323509216309,
        1.02947998046875
      ],
      "type": "VEC3"
    },
    {
      "bufferView": 2,
      "byteOffset": 20891184,
      "componentType": 5126,
      "count": 37090,
      "max": [
        0.9999974966049194,
        0.9999983310699463,
        1.0
      ],
      "min": [
        -0.999997079372406,
        -0.9999994039535522,
        -0.9999971985816956
      ],
      "type": "VEC3"
    },
    {
      "bufferView": 1,
      "byteOffset": 6815368,
      "componentType": 5126,
      "count": 37090,
      "max": [
        0.9997929930686951,
        0.9998779892921448
      ],
      "min": [
        0.00012199999764561653,
        0.00018899999849963933
      ],
      "type": "VEC2"
    },
    {
      "bufferView": 0,
      "byteOffset": 11674920,
      "componentType": 5125,
      "count": 81267,
      "type": "SCALAR"
    }
  ],
  "asset": {
    "extras": {
      "author": "The Hallwyl Museum (Hallwylska museet) (https://sketchfab.com/TheHallwylMuseum)",
      "license": "CC-BY-4.0 (http://creativecommons.org/licenses/by/4.0/)",
      "source": "https://sketchfab.com/3d-models/the-smoking-room-2247ed77976a40b6ae81271cd6b149c8",
      "title": "The Smoking Room"
    },
    "generator": "Sketchfab-12.65.0",
    "version": "2.0"
  },
  "bufferViews": [
    {
      "buffer": 0,
      "byteLength": 11999988,
      "name": "floatBufferViews",
      "target": 34963
    },
    {
      "buffer": 0,
      "byteLength": 7112088,
      "byteOffset": 11999988,
      "byteStride": 8,
      "name": "floatBufferViews",
      "target": 34962
    },
    {
      "buffer": 0,
      "byteLength": 21336264,
      "byteOffset": 19112076,
      "byteStride": 12,
      "name": "floatBufferViews",
      "target": 34962
    }
  ],
  "buffers": [
    {
      "byteLength": 40448340,
      "uri": "scene.bin"
    }
  ],
  "extensionsUsed": [
    "KHR_materials_unlit"
  ],
  "images": [
    {
      "uri": "textures/model_Material_u1_v1_baseColor.jpeg"
    }
  ],
  "materials": [
    {
      "extensions": {
        "KHR_materials_unlit": {}
      },
      "name": "model_Material_u1_v1",
      "pbrMetallicRoughness": {
        "baseColorTexture": {
          "index": 0
        },
        "metallicFactor": 0.0
      }
    }
  ],
  "meshes": [
    {
      "name": "Object_0",
      "primitives": [
        {
          "attributes": {
            "NORMAL": 1,
            "POSITION": 0,
            "TEXCOORD_0": 2
          },
          "indices": 3,
          "material": 0,
          "mode": 4
        }
      ]
    },
    {
      "name": "Object_1",
      "primitives": [
        {
          "attributes": {
            "NORMAL": 5,
            "POSITION": 4,
            "TEXCOORD_0": 6
          },
          "indices": 7,
          "material": 0,
          "mode": 4
        }
      ]
    },
    {
      "name": "Object_2",
      "primitives": [
        {
          "attributes": {
            "NORMAL": 9,
            "POSITION": 8,
            "TEXCOORD_0": 10
          },
          "indices": 11,
          "material": 0,
          "mode": 4
        }
      ]
    },
    {
      "name": "Object_3",
      "primitives": [
        {
          "attributes": {
            "NORMAL": 13,
            "POSITION": 12,
            "TEXCOORD_0": 14
          },
          "indices": 15,
          "material": 0,
          "mode": 4
        }
      ]
    },
    {
      "name": "Object_4",
      "primitives": [
        {
          "attributes": {
            "NORMAL": 17,
            "POSITION": 16,
            "TEXCOORD_0": 18
          },
          "indices": 19,
          "material": 0,
          "mode": 4
        }
      ]
    },
    {
      "name": "Object_5",
      "primitives": [
        {
          "attributes": {
            "NORMAL": 21,
            "POSITION": 20,
            "TEXCOORD_0": 22
          },
          "indices": 23,
          "material": 0,
          "mode": 4
        }
      ]
    },
    {
      "name": "Object_6",
      "primitives": [
        {
          "attributes": {
            "NORMAL": 25,
            "POSITION": 24,
            "TEXCOORD_0": 26
          },
          "indices": 27,
          "material": 0,
          "mode": 4
        }
      ]
    },
    {
      "name": "Object_7",
      "primitives": [
        {
          "attributes": {
            "NORMAL": 29,
            "POSITION": 28,
            "TEXCOORD_0": 30
          },
          "indices": 31,
          "material": 0,
          "mode": 4
        }
      ]
    },
    {
      "name": "Object_8",
      "primitives": [
        {
          "attributes": {
            "NORMAL": 33,
            "POSITION": 32,
            "TEXCOORD_0": 34
          },
          "indices": 35,
          "material": 0,
          "mode": 4
        }
      ]
    },
    {
      "name": "Object_9",
      "primitives": [
        {
          "attributes": {
            "NORMAL": 37,
            "POSITION": 36,
            "TEXCOORD_0": 38
          },
          "indices": 39,
          "material": 0,
          "mode": 4
        }
      ]
    },
    {
      "name": "Object_10",
      "primitives": [
        {
          "attributes": {
            "NORMAL": 41,
            "POSITION": 40,
            "TEXCOORD_0": 42
          },
          "indices": 43,
          "material": 0,
          "mode": 4
        }
      ]
    },
    {
      "name": "Object_11",
      "primitives": [
        {
          "attributes": {
            "NORMAL": 45,
            "POSITION": 44,
            "TEXCOORD_0": 46
          },
          "indices": 47,
          "material": 0,
          "mode": 4
        }
      ]
    },
    {
      "name": "Object_12",
      "primitives": [
        {
          "attributes": {
            "NORMAL": 49,
            "POSITION": 48,
            "TEXCOORD_0": 50
          },
          "indices": 51,
          "material": 0,
          "mode": 4
        }
      ]
    },
    {
      "name": "Object_13",
      "primitives": [
        {
          "attributes": {
            "NORMAL": 53,
            "POSITION": 52,
            "TEXCOORD_0": 54
          },
          "indices": 55,
          "material": 0,
          "mode": 4
        }
      ]
    }
  ],
  "nodes": [
    {
      "children": [
        1
      ],
      "matrix": [
        0.2445082813501358,
        0.0,
        0.0,
        0.0,
        0.0,
        5.4291744733289305e-17,
        -0.2445082813501358,
        0.0,
        0.0,
        0.2445082813501358,
        5.4291744733289305e-17,
        0.0,
        0.0,
        0.0,
        0.0,
        1.0
      ],
      "name": "Sketchfab_model"
    },
    {
      "children": [
        2,
        3,
        4,
        5,
        6,
        7,
        8,
        9,
        10,
        11,
        12,
        13,
        14,
        15
      ],
      "name": "model.obj.cleaner.materialmerger.gles"
    },
    {
      "mesh": 0,
      "name": "Object_2"
    },
    {
      "mesh": 1,
      "name": "Object_3"
    },
    {
      "mesh": 2,
      "name": "Object_4"
    },
    {
      "mesh": 3,
      "name": "Object_5"
    },
    {
      "mesh": 4,
      "name": "Object_6"
    },
    {
      "mesh": 5,
      "name": "Object_7"
    },
    {
      "mesh": 6,
      "name": "Object_8"
    },
    {
      "mesh": 7,
      "name": "Object_9"
    },
    {
      "mesh": 8,
      "name": "Object_10"
    },
    {
      "mesh": 9,
      "name": "Object_11"
    },
    {
      "mesh": 10,
      "name": "Object_12"
    },
    {
      "mesh": 11,
      "name": "Object_13"
    },
    {
      "mesh": 12,
      "name": "Object_14"
    },
    {
      "mesh": 13,
      "name": "Object_15"
    }
  ],
  "samplers": [
    {
      "magFilter": 9729,
      "minFilter": 9987,
      "wrapS": 10497,
      "wrapT": 10497
    }
  ],
  "scene": 0,
  "scenes": [
    {
      "name": "Sketchfab_Scene",
      "nodes": [
        0
      ]
    }
  ],
  "textures": [
    {
      "sampler": 0,
      "source": 0
    }
  ]
}
